<?xml version="1.0" encoding="utf-8"?>
<!-- Generator: Adobe Illustrator 18.1.1, SVG Export Plug-In . SVG Version: 6.00 Build 0)  -->
<svg version="1.1" id="Layer_1" xmlns="http://www.w3.org/2000/svg" xmlns:xlink="http://www.w3.org/1999/xlink" x="0px" y="0px"
	 viewBox="0 104.4 595.3 644" enable-background="new 0 104.4 595.3 644" xml:space="preserve">
<g>
	<path id="Shape" fill="#696B79" d="M297.3,743c-26.5,0-50.1-14.2-62.4-37.8l-1.9-2.8c-3.8-7.6-10.4-18-17-19.8
		c-5.7-1.9-13.2,0-24.6,5.7l-2.8,0.9c-23.6,11.3-51,8.5-72.8-7.6c-20.7-16.1-32-41.6-29.2-67.1v-2.8c3.8-25.5-0.9-33.1-25.5-36.9
		l-3.8-0.9c-25.5-5.7-46.3-23.6-53.9-49.1s-1.9-52,15.1-71.8l1.9-2.8c18-18,18-27.4,0-46.3l-1.9-2.8c-16.9-20-22.6-46.5-15-72
		s28.3-43.5,53.9-49.1l3.8-0.9c24.6-3.8,29.3-11.3,25.5-36.9v-3.8c-2.8-26.5,7.6-52,29.3-67.1c20.8-16.1,48.2-18.9,72.8-7.6l2.8,0.9
		c10.4,5.7,18.9,7.6,24.6,5.7c6.6-1.9,13.2-12.3,17-19.8l1.9-2.8c13.2-23.6,36.9-37.8,62.4-37.8c26.5,0,50.1,14.2,62.4,37.8l1.9,2.8
		c3.8,7.6,10.4,18,17,19.8c5.7,1.9,13.2,0,24.6-5.7l2.8-0.9c23.6-11.3,51-8.5,72.8,7.6c20.8,16.1,32.1,41.6,29.3,67.1v3.8
		c-3.8,25.5,0.9,33.1,25.5,36.9l3.8,0.9c25.5,5.7,46.3,23.6,53.9,49.1s1.9,52-15.1,71.8l-1.9,2.8c-18,18-18,27.4,0,46.3l1.9,2.8
		c17,19.8,23.6,46.3,15.1,71.8c-7.6,25.5-28.3,43.5-53.9,49.1l-3.8,0.9c-24.6,3.8-29.3,11.3-25.5,36.9v3.8
		c2.8,26.5-7.6,52-29.3,67.1c-20.8,16.1-48.2,18.9-72.8,7.6l-2.8-0.9c-11.3-5.7-18.9-7.6-24.6-5.7c-6.6,1.9-13.2,12.3-17,19.8
		l-1.9,2.8C346.5,728.8,322.8,743,297.3,743z M268,684.4c5.7,11.3,17,18.9,29.3,18.9c12.3,0,23.6-7.6,29.3-18.9l1.9-2.8
		c10.4-19.8,22.7-32.1,38.7-36.9c15.1-4.7,32.1-2.8,52,6.6l2.8,0.9c11.3,5.7,23.6,4.7,34-2.8c10.4-7.5,15.1-19.8,13.2-33.1v-2.8
		c-5.7-43.5,13.2-69.9,55.7-78.4l2.8-0.9c12.3-1.9,22.7-10.4,26.5-22.7s0.9-25.5-8.5-35l-1.9-2.8c-29.3-32.1-29.3-64.3,0-96.4
		l1.9-2.8c9.4-9.4,12.3-22.7,8.5-35c-3.8-12.3-14.2-20.8-26.5-22.7l-2.8-0.9c-42.5-8.5-61.4-34-55.7-78.4v-2.8
		c1.9-13.2-2.8-25.5-13.2-33.1c-9.4-7.6-22.7-8.5-34-2.8l-2.8,0.9c-19.8,9.4-36.9,12.3-52,6.6c-15.1-4.7-28.3-17-38.7-36.9l-1.9-2.8
		c-5.7-11.3-17-18.9-29.3-18.9c-12.3,0-23.6,7.6-29.3,18.9l-1.9,2.8c-10.4,19.8-22.7,32.1-38.7,36.9c-15.1,4.7-32.1,2.8-52-6.6
		l-2.8-0.9c-11.3-5.7-23.6-4.7-34,2.8c-10.4,7.6-15.1,19.8-13.2,33.1v2.8c5.7,43.5-13.2,69.9-55.7,78.4l-2.8,0.9
		c-12.3,1.9-22.7,10.4-26.5,22.7c-3.8,12.3-0.9,25.5,8.5,35l1.9,2.8c29.3,32.1,29.3,64.3,0,96.4l-1.9,2.8c-9.4,9.4-12.3,22.7-8.5,35
		s14.2,20.8,26.5,22.7l2.8,0.9c42.5,8.5,61.4,34,55.7,78.4v2.8c-1.9,13.2,2.8,25.5,13.2,33.1c9.4,7.6,22.7,8.5,34,2.8l2.8-0.9
		c19.8-9.4,36.9-12.3,52-6.6c15.1,4.7,28.3,17,38.7,36.9L268,684.4z"/>
	<g>
		<path fill="#14CDA8" d="M216.3,416.5c-33.1,0-59.5-26.5-59.5-59.5s26.5-59.5,59.5-59.5s59.5,26.5,59.5,59.5
			S249.4,416.5,216.3,416.5z M216.3,336.2c-12.3,0-21.7,9.4-21.7,21.7c0,12.3,9.4,21.7,21.7,21.7s21.7-9.4,21.7-21.7
			C238,345.6,228.6,336.2,216.3,336.2z"/>
		<path fill="#14CDA8" d="M378.8,555.4c-33.1,0-59.5-26.5-59.5-59.5s26.5-59.5,59.5-59.5s59.5,26.5,59.5,59.5
			S410.9,555.4,378.8,555.4z M378.8,475.1c-12.3,0-21.7,9.4-21.7,21.7c0,12.3,9.4,21.7,21.7,21.7c12.3,0,21.7-9.4,21.7-21.7
			C400.5,484.6,390.1,475.1,378.8,475.1z"/>
		<path fill="#14CDA8" d="M201.2,536.5c-4.7,0-9.4-1.9-13.2-5.7c-7.6-7.6-7.6-19.8,0-26.5l191.7-189.8c7.6-7.6,19.8-7.6,26.5,0
			c7.6,7.6,7.6,19.8,0,26.5L214.4,530.9C210.6,534.6,205.9,536.5,201.2,536.5z"/>
	</g>
</g>
</svg>
