<?xml version="1.0" encoding="utf-8"?>
<!-- Generator: Adobe Illustrator 18.1.1, SVG Export Plug-In . SVG Version: 6.00 Build 0)  -->
<svg version="1.1" id="Layer_1" xmlns="http://www.w3.org/2000/svg" xmlns:xlink="http://www.w3.org/1999/xlink" x="0px" y="0px"
	 viewBox="0 83.5 595.3 677.1" enable-background="new 0 83.5 595.3 677.1" xml:space="preserve">
<g>
	<path fill="#14CDA8" d="M540.6,721.1c-143.1-11.5-215.1-111.4-218.9-305.3l60.5,38.4c2.9,1.9,6.7,2.9,10.6,2.9
		c6.7,0,12.5-2.9,16.3-8.6c5.8-8.6,2.9-21.1-5.8-26.9l-94.1-59.5c-6.7-3.8-14.4-3.8-20.2,0l-94.1,59.5c-8.6,5.8-11.5,17.3-5.8,26.9
		c5.8,9.6,17.3,11.5,26.9,5.8l66.2-42.2c-2.8,195.7-74.8,297.5-218.8,309c-10.6,1-18.2,10.6-17.3,21.1c1,9.6,9.6,17.3,19.2,17.3
		c1,0,1,0,1.9,0c123.9-10.6,202.6-78.7,236.2-202.6c33.6,124.8,112.3,193,236.2,202.6c1,0,1,0,1.9,0c9.6,0,18.2-7.7,19.2-17.3
		C558.8,731.7,551.1,722.1,540.6,721.1z"/>
	<path fill="#696B79" d="M297.6,672.2C136.3,672.2,4.8,540.6,4.8,378.4S136.3,84.6,297.6,84.6s292.9,131.5,292.9,293.8
		S458.9,672.2,297.6,672.2z M297.6,132.6C162.2,132.6,52.8,243,52.8,378.4s109.5,245.8,244.8,245.8s244.8-110.4,244.8-245.8
		S433,132.6,297.6,132.6z"/>
</g>
</svg>
