<?xml version="1.0" encoding="utf-8"?>
<!-- Generator: Adobe Illustrator 18.1.1, SVG Export Plug-In . SVG Version: 6.00 Build 0)  -->
<svg version="1.1" id="Layer_1" xmlns="http://www.w3.org/2000/svg" xmlns:xlink="http://www.w3.org/1999/xlink" x="0px" y="0px"
	 viewBox="0 35.8 595.3 764" enable-background="new 0 35.8 595.3 764" xml:space="preserve">
<g>
	<path id="Shape" fill="#696B79" d="M540.7,292.2c-5.4-44.4-34.6-74.7-81.2-74.7h-41.1C413,116.9,389.2,39,299.3,39
		c-92,0-113.6,77.9-119.1,178.6h-45.5c-46.5,0-76.8,31.4-81.2,74.7L0.5,710v2.2c0,46.5,37.9,84.4,81.2,84.4h431.8
		c44.4,0,81.2-39,81.2-84.4L540.7,292.2L540.7,292.2z M298.3,84.5c52,0,69.3,44.4,74.7,133.1H223.6
		C227.9,128.9,244.2,84.5,298.3,84.5z M512.6,753.3H80.7c-19.5,0-36.8-17.3-36.8-39l53-419.9c3.2-22.7,19.5-31.4,36.8-31.4h44.4
		c0,10.8,0,39,0,58.4c0,11.9,9.7,22.7,21.6,22.7s22.7-10.8,22.7-22.7c0-20.6,0-46.5,0-58.4h152.7c0,10.8,1.1,37.9,1.1,58.4
		c0,11.9,9.7,22.7,21.6,22.7s21.6-10.8,21.6-22.7c0-19.5,0-35.7,0-58.4h40c17.3,0,33.6,7.6,36.8,31.4l53,419.9
		C548.3,734.9,532.1,753.3,512.6,753.3L512.6,753.3z"/>
	<path fill="#14CDA8" d="M261.5,678.6c-4.3,0-8.7-1.1-13-4.3c-9.7-6.5-11.9-20.6-5.4-30.3l69.3-96.3h-66c-7.6,0-15.2-4.3-18.4-10.8
		c-4.3-6.5-3.2-15.2,0-21.6l86.6-139.6c6.5-9.7,19.5-13,30.3-7.6c9.7,6.5,13,19.5,6.5,30.3l-66,106.1h69.3c8.7,0,15.2,4.3,19.5,11.9
		c3.2,7.6,3.2,16.2-2.2,22.7l-94.2,131C274.5,675.3,268,678.6,261.5,678.6z"/>
</g>
</svg>
