<?xml version="1.0" encoding="utf-8"?>
<!-- Generator: Adobe Illustrator 18.1.1, SVG Export Plug-In . SVG Version: 6.00 Build 0)  -->
<svg version="1.1" id="Layer_1" xmlns="http://www.w3.org/2000/svg" xmlns:xlink="http://www.w3.org/1999/xlink" x="0px" y="0px"
	 viewBox="0 111.7 595.3 609.8" enable-background="new 0 111.7 595.3 609.8" xml:space="preserve">
<g>
	<path fill="#14CDA8" d="M362.1,357.1h-33.6c-1.9-10.6-6.7-21.1-13.4-28.8h47c7.7,0,13.4-5.8,13.4-13.4s-5.8-13.4-13.4-13.4H230.5
		c-7.7,0-13.4,5.8-13.4,13.4s5.8,13.4,13.4,13.4h29.8c18.2,0,34.6,11.5,40.3,28.8h-69.1c-7.7,0-13.4,5.8-13.4,13.4
		c0,7.7,5.8,13.4,13.4,13.4h69.1c-5.8,17.3-22.1,28.8-40.3,28.8h-29.8c-4.8,0-9.6,2.9-12.5,7.7c-1.9,4.8-1.9,10.6,1,14.4L304.5,548
		c2.9,3.8,6.7,5.8,10.6,5.8c2.9,0,5.8-1,7.7-2.9c2.9-1.9,4.8-5.8,5.8-8.6c1-3.8,0-7.7-2.9-10.6l-68.2-91.2h1.9
		c33.6,0,61.4-24,68.2-56.6h33.5c7.7,0,13.4-5.8,13.4-13.4C374.6,362.9,369.7,357.1,362.1,357.1z"/>
	<path fill="#696B79" d="M296.8,116.1C135.5,116.1,3.9,245.7,3.9,404.2s131.5,288,292.8,288c42.2,0,84.5-9.6,122.9-26.9l-4.8,22.1
		c-2.9,12.5,4.8,25.9,18.2,28.8c1.9,0,3.8,1,5.8,1c10.6,0,21.1-7.7,23-18.2l19.2-82.6c2.9-10.6-2.9-22.1-13.4-26.9l-69.1-32.6
		c-11.5-5.8-25.9-1-31.7,11.5c-5.8,11.5-1,25.9,11.5,31.7l34.6,16.3c-35.5,18.2-73.9,27.8-114.3,27.8
		c-135.4,0-244.8-107.5-244.8-240s109.5-240,244.8-240s244.8,107.5,244.8,240c0,13.4,10.6,24,24,24c13.4,0,24-10.6,24-24
		C589.6,244.8,458.1,116.1,296.8,116.1z"/>
</g>
</svg>
